<svg width="137" height="39" viewBox="0 0 137 39" fill="none" xmlns="http://www.w3.org/2000/svg">
<rect y="5.84677" width="135.667" height="33.1807" rx="16.5904" transform="rotate(-2.47001 0 5.84677)" fill="white"/>
<mask id="mask0_28_92" style="mask-type:luminance" maskUnits="userSpaceOnUse" x="7" y="11" width="19" height="20">
<path d="M7.42883 12.5853L25.1361 11.8215L25.8999 29.5287L8.19266 30.2925L7.42883 12.5853Z" fill="white"/>
</mask>
<g mask="url(#mask0_28_92)">
<path d="M17.0463 29.9106C21.936 29.6997 25.7289 25.5648 25.518 20.6751C25.307 15.7854 21.1722 11.9925 16.2824 12.2034C11.3927 12.4143 7.59982 16.5492 7.81075 21.4389C8.02167 26.3286 12.1566 30.1215 17.0463 29.9106Z" fill="#C8D661"/>
<path d="M18.3393 26.5728L17.9304 17.0935L16.8184 17.1415C16.0169 17.176 15.4162 17.3723 15.0178 17.7307C14.6188 18.0766 14.431 18.5229 14.4546 19.0701C14.4725 19.4832 14.5603 19.8325 14.7186 20.1178C14.877 20.4031 15.1016 20.6613 15.3913 20.8924C15.6815 21.1235 16.0454 21.3757 16.4836 21.6489L17.5714 22.314L14.6574 26.7322L12.3236 26.8329L15.1042 22.6948L16.5429 23.8745L15.4193 23.2287C14.8539 22.8952 14.313 22.522 13.8005 22.1118C13.3458 21.7411 12.9934 21.3305 12.7427 20.8789C12.492 20.4267 12.353 19.891 12.3262 19.2713C12.2801 18.2018 12.6259 17.3223 13.3632 16.6329C14.1123 15.9312 15.2341 15.5481 16.7286 15.4837L20.028 15.3414L20.5085 26.4792L18.3393 26.5728Z" fill="white"/>
</g>
<path d="M36.2616 29.0817C31.3774 29.2924 27.2374 25.5096 27.0268 20.626C26.8161 15.7417 30.6135 11.5852 35.4978 11.3745C40.3814 11.1639 44.5233 14.9779 44.734 19.8622C44.9447 24.7458 41.1453 28.8711 36.2616 29.0817Z" fill="#C8D661"/>
<path d="M34.1784 12.6319L24.9661 28.4691L29.4938 28.2738L34.8165 19.1446L34.6744 19.0874L33.3668 25.5126L36.7413 25.9583L39.997 21.4834L39.8064 21.3988L38.8557 26.3633L46.0928 24.6579L44.4985 22.2702L41.8943 22.9857L42.2202 23.3294L43.2236 18.1445L40.288 16.3599L36.7545 21.2194L36.9444 21.3046L38.2135 15.0822L34.1784 12.6319Z" fill="#313240"/>
<path d="M34.1784 12.6319L24.9661 28.4691L29.4938 28.2738L34.8165 19.1446L34.6744 19.0874L33.3668 25.5126L36.7413 25.9583L39.997 21.4834L39.8064 21.3988L38.8557 26.3633L41.765 25.6778L43.2236 18.1445L40.288 16.3599L36.7545 21.2194L36.9444 21.3046L38.2135 15.0822L34.1784 12.6319Z" fill="#313240"/>
<path d="M48.3678 25.2777L53.3925 13.9023L57.585 13.7215L58.7345 20.4658L62.6894 13.5007L66.8458 13.3214L67.3263 24.4599L63.2613 24.6352L63.0034 18.6561L59.4873 24.798L55.4223 24.9733L54.3788 18.9731L51.6489 25.1361L48.3678 25.2777ZM79.7183 21.7155C79.7346 22.0926 79.7571 22.463 79.7846 22.8267C79.8127 23.1909 79.8524 23.5482 79.9041 23.899L76.1302 24.0618C76.033 23.8906 75.952 23.7108 75.8882 23.5246C75.8031 23.2782 75.7432 23.0238 75.7094 22.7654C75.3403 23.2437 74.8646 23.6474 74.2821 23.9771C73.7116 24.2944 72.885 24.4761 71.8037 24.5228C70.71 24.5699 69.8236 24.3521 69.1453 23.8705C68.4793 23.3877 68.1283 22.721 68.0915 21.8699C68.0575 21.0802 68.2556 20.4631 68.687 20.0182C69.1303 19.5608 69.8337 19.226 70.7991 19.014C71.7633 18.7891 73.0048 18.6445 74.5241 18.579L75.472 18.5381L75.4634 18.3374C75.4466 17.949 75.2697 17.658 74.9326 17.4656C74.5955 17.2732 73.9772 17.1963 73.0783 17.2351C72.1911 17.2734 71.3698 17.4247 70.6136 17.6885C69.8699 17.9394 69.2655 18.1849 68.801 18.4243L68.6956 15.9813C69.2219 15.7635 69.9307 15.5383 70.8218 15.3053C71.7243 15.0594 72.7586 14.9113 73.9255 14.861C75.1043 14.8102 76.1053 14.8764 76.9293 15.0602C77.7527 15.2317 78.3879 15.5632 78.8349 16.0554C79.282 16.5352 79.5243 17.219 79.5626 18.1062L79.7183 21.7155ZM80.6637 14.8447L84.4377 14.6819L84.7229 16.2213C85.1589 15.594 85.6922 15.1269 86.3247 14.8193C86.9566 14.5118 87.6919 14.3405 88.5307 14.3043C89.4786 14.2634 90.3365 14.3967 91.1049 14.7042C91.856 14.9987 92.5014 15.5118 92.9578 16.1771C93.4256 16.8506 93.6818 17.7165 93.7274 18.7736C93.773 19.8307 93.5926 20.7214 93.185 21.445C92.7899 22.1563 92.217 22.7049 91.4666 23.0897C90.7157 23.4758 89.8485 23.6894 88.864 23.7319C88.1594 23.7667 87.4547 23.6669 86.7875 23.4376C86.1439 23.1981 85.5792 22.802 85.093 22.2512L85.2566 26.0429L81.1544 26.2198L80.6637 14.8441L80.6637 14.8447ZM105.613 18.2609C105.574 17.3614 105.783 16.5488 106.239 15.823C106.707 15.0968 107.387 14.5139 108.281 14.0732C109.187 13.6202 110.266 13.3667 111.518 13.3127C112.818 13.2566 113.916 13.434 114.81 13.846C115.717 14.2575 116.364 14.8688 116.752 15.68C117.152 16.4906 117.243 17.4671 117.024 18.609L109.824 18.9196C109.992 19.4356 110.332 19.8166 110.841 20.0625C111.363 20.296 112.122 20.391 113.118 20.3481C113.811 20.3182 114.452 20.2296 115.042 20.0817C115.597 19.9338 116.145 19.758 116.682 19.5551L116.776 21.7242C116.263 21.99 115.688 22.2093 115.051 22.3829C114.425 22.5559 113.596 22.665 112.563 22.7096C110.29 22.8076 108.577 22.4617 107.422 21.6712C106.28 20.8683 105.676 19.7318 105.613 18.2609ZM117.141 13.2706L127.551 12.8216L127.651 15.1554L124.406 15.2954L124.694 21.9669L120.592 22.1438L120.305 15.4723L117.242 15.6044L117.141 13.2706ZM94.3178 14.2551L98.4193 14.0782L98.5955 18.1615L102.303 13.9107L105.839 13.7582L102.391 17.669L106.975 22.7312L102.016 22.9451L98.6364 19.1094L98.8078 23.0835L94.7062 23.2605L94.3178 14.2551ZM111.625 15.3536C111.065 15.3777 110.629 15.5609 110.315 15.9032C110 16.2332 109.805 16.6496 109.729 17.152L113.339 16.9963C113.305 16.4986 113.154 16.0971 112.885 15.7918C112.616 15.4752 112.195 15.329 111.625 15.3536ZM89.5349 18.9545C89.5034 18.2249 89.2778 17.6563 88.8581 17.2487C88.4509 16.828 87.8819 16.6332 87.153 16.6646C86.4848 16.6935 85.9342 16.9242 85.5028 17.3567C85.0704 17.7775 84.8709 18.3763 84.9044 19.1542C84.938 19.9321 85.1823 20.5242 85.6386 20.9308C86.1062 21.3246 86.68 21.5068 87.3606 21.4775C88.1143 21.445 88.6697 21.2016 89.0274 20.748C89.3975 20.2939 89.5669 19.6958 89.5349 18.9545ZM75.5436 20.1966L74.6139 20.2367C73.7268 20.275 73.0919 20.3763 72.7093 20.5389C72.339 20.7009 72.1627 20.9882 72.1806 21.4014C72.1958 21.7538 72.3286 22.01 72.5785 22.1695C72.8409 22.3167 73.1477 22.3827 73.5007 22.3675C74.0355 22.3444 74.4686 22.2281 74.8002 22.0193C75.1437 21.7975 75.4073 21.5484 75.59 21.2726L75.5436 20.1966Z" fill="#C8D663"/>
</svg>
