<svg width="418" height="169" viewBox="0 0 418 169" fill="none" xmlns="http://www.w3.org/2000/svg">
<path d="M241.51 35.7823C49.971 -50.4102 65.5098 71.7823 65.5098 71.7823C65.5098 71.7823 36.0098 149.782 185.01 140.782C319.037 132.687 355.51 165.782 355.51 95.2823C355.51 30.029 291.51 58.2823 241.51 35.7823Z" stroke="#313240" stroke-opacity="0.03" stroke-width="10"/>
<rect x="198.785" y="32.0032" width="92" height="34" rx="17" transform="rotate(-0.107302 198.785 32.0032)" fill="#6BD7EA"/>
<path d="M221.126 43.7614L221.147 54.9614L219.243 54.9649L219.226 45.5729L213.882 45.5829L213.899 54.9749L211.995 54.9785L211.974 43.7785L221.126 43.7614ZM222.745 54.9584L222.724 43.7584L229.812 43.7451L229.816 45.5531L224.632 45.5628L224.637 48.3628L229.821 48.3531L229.824 50.1611L224.64 50.1708L224.646 53.1468L229.83 53.1371L229.833 54.9451L222.745 54.9584ZM238.992 43.7279L239.012 54.9279L237.108 54.9315L237.091 45.5395L234.147 45.545L233.822 51.5616C233.714 53.4658 232.852 54.9394 230.789 54.9433L230.229 54.9444L230.225 53.1364L230.657 53.1355C231.553 53.1339 231.872 52.4133 231.918 51.5012L232.336 43.7404L238.992 43.7279ZM240.605 54.9249L240.584 43.7249L247.672 43.7117L247.675 45.5197L242.491 45.5294L242.496 48.3294L247.68 48.3197L247.684 50.1277L242.5 50.1374L242.505 53.1134L247.689 53.1036L247.693 54.9116L240.605 54.9249ZM240.82 41.6445C240.818 40.8605 241.473 40.2993 242.177 40.2979C242.897 40.2966 243.538 40.8554 243.54 41.6394C243.541 42.4074 242.902 43.0006 242.182 43.0019C241.478 43.0033 240.821 42.4125 240.82 41.6445ZM244.676 41.6373C244.674 40.8533 245.329 40.292 246.033 40.2907C246.753 40.2894 247.394 40.8482 247.396 41.6322C247.397 42.4002 246.758 42.9934 246.038 42.9947C245.334 42.996 244.677 42.4053 244.676 41.6373ZM248.808 54.9096L248.787 43.7096L250.691 43.706L250.699 48.314L255.867 48.3043L255.859 43.6963L257.763 43.6928L257.784 54.8927L255.88 54.8963L255.871 50.1123L250.703 50.122L250.712 54.906L248.808 54.9096ZM259.386 54.8897L259.365 43.6898L261.269 43.6862L261.281 50.1022L265.669 43.678L267.877 43.6738L263.425 50.0982L266.417 50.0926L267.77 54.874L265.866 54.8776L265.028 51.9032L261.284 51.9102L261.29 54.8862L259.386 54.8897ZM277.664 54.8555L275.76 54.8591L275.744 46.3951L270.848 54.8683L268.464 54.8727L268.443 43.6728L270.347 43.6692L270.363 52.1332L275.259 43.66L277.643 43.6555L277.664 54.8555Z" fill="white"/>
<rect x="299.397" y="93.1865" width="116" height="34" rx="17" transform="rotate(-4.77377 299.397 93.1865)" fill="#F09C42"/>
<path d="M322.262 103.118L323.194 114.279L321.297 114.438L320.515 105.078L315.19 105.523L315.971 114.882L314.074 115.041L313.142 103.88L322.262 103.118ZM329.918 113.878C326.921 114.129 324.053 112.088 323.763 108.612C323.475 105.168 325.962 102.648 328.96 102.398C331.941 102.149 334.828 104.22 335.115 107.664C335.405 111.14 332.9 113.629 329.918 113.878ZM325.724 108.448C325.924 110.84 327.785 112.178 329.762 112.013C331.724 111.849 333.354 110.22 333.154 107.828C332.957 105.468 331.076 104.1 329.115 104.264C327.138 104.429 325.527 106.089 325.724 108.448ZM343.724 101.326L344.657 112.487L342.759 112.645L341.978 103.286L339.044 103.531L339.21 109.554C339.256 111.461 338.518 112.999 336.461 113.171L335.903 113.218L335.753 111.416L336.183 111.38C337.076 111.306 337.335 110.561 337.307 109.649L337.092 101.88L343.724 101.326ZM351.375 112.086C348.377 112.337 345.509 110.296 345.219 106.82C344.932 103.376 347.419 100.857 350.416 100.606C353.398 100.357 356.284 102.428 356.572 105.872C356.862 109.348 354.356 111.837 351.375 112.086ZM347.18 106.657C347.38 109.048 349.242 110.386 351.219 110.221C353.18 110.057 354.81 108.428 354.611 106.036C354.413 103.676 352.533 102.308 350.572 102.472C348.595 102.637 346.983 104.297 347.18 106.657ZM359.655 111.234L358.873 101.875L355.94 102.12L355.789 100.318L363.554 99.6697L363.705 101.471L360.771 101.716L361.552 111.076L359.655 111.234ZM365.364 110.757L364.432 99.5963L371.496 99.0065L371.646 100.808L366.48 101.24L366.713 104.03L371.879 103.598L372.03 105.4L366.863 105.832L367.111 108.797L372.277 108.366L372.428 110.168L365.364 110.757ZM373.539 110.075L372.607 98.9137L374.504 98.7552L374.888 103.347L380.038 102.917L379.654 98.3251L381.552 98.1667L382.484 109.328L380.586 109.486L380.188 104.719L375.038 105.149L375.436 109.916L373.539 110.075ZM393.201 108.433L384.08 109.194L383.148 98.0333L385.046 97.8749L385.827 107.234L391.153 106.79L390.371 97.4301L392.268 97.2717L393.201 108.433ZM393.54 110.572L393.21 106.618L395.107 106.459L395.437 110.414L393.54 110.572ZM395.333 108.255L398.004 96.7927L400.221 96.6076L405.027 107.445L403.05 107.61L401.984 105.034L397.839 105.38L397.278 108.092L395.333 108.255ZM398.23 103.533L401.244 103.282L399.274 98.5331L398.23 103.533Z" fill="white"/>
<rect y="71.8464" width="124" height="34" rx="17" transform="rotate(-16.927 0 71.8464)" fill="#C8D663"/>
<path d="M24.6832 76.6689L27.9441 87.3837L26.1226 87.938L23.3881 78.9529L18.2756 80.5088L21.0102 89.4939L19.1886 90.0483L15.9277 79.3335L24.6832 76.6689ZM34.433 85.5761C31.5553 86.4519 28.3223 85.0609 27.3067 81.724C26.3005 78.4178 28.2012 75.431 31.0789 74.5552C33.9413 73.6841 37.1989 75.101 38.2052 78.4072C39.2207 81.7441 37.2954 84.705 34.433 85.5761ZM29.1895 81.1511C29.8882 83.4471 31.9899 84.3628 33.8879 83.7852C35.7707 83.2122 37.0212 81.2762 36.3224 78.9802C35.633 76.7148 33.5067 75.7731 31.6239 76.3461C29.7259 76.9237 28.5 78.8857 29.1895 81.1511ZM45.7617 70.2539L48.4962 79.239L50.4555 78.6427L51.6108 82.4388L49.7892 82.9932L49.1604 80.9268L41.8131 83.1628L42.442 85.2292L40.6205 85.7836L39.4652 81.9875L40.506 81.6707C41.3632 81.4098 41.3958 80.363 41.1762 79.4765L39.394 72.1918L45.7617 70.2539ZM43.1388 80.8695L46.6747 79.7934L44.4666 72.5379L41.6501 73.3951L43.0803 79.2483C43.222 79.8239 43.238 80.371 43.1388 80.8695ZM48.4099 69.448L54.6245 67.5566L55.1509 69.2863L50.7578 70.6233L53.4923 79.6084L51.6708 80.1627L48.4099 69.448ZM58.1888 78.1791L57.6623 76.4494L59.8818 75.7739L60.166 74.015L54.6982 67.5342L56.5657 66.9658L60.5341 71.7622L61.571 65.4425L63.3925 64.8882L61.4185 77.1961L58.1888 78.1791ZM70.1688 74.7003C68.4544 75.2221 66.7195 74.4121 65.8743 73.0638L67.3011 71.9271C67.8488 72.8475 68.7819 73.1656 69.685 72.8908C70.4656 72.6532 71.197 71.9791 70.9129 71.0453C70.624 70.0963 69.699 69.8594 68.903 70.1016L67.6326 70.4883L67.1062 68.7586L68.4838 68.3393C69.341 68.0785 69.9313 67.3804 69.6238 66.3701C69.3303 65.4058 68.4159 65.1489 67.62 65.3911C66.6097 65.6986 66.1851 66.4466 66.2017 67.5454L64.3403 67.3091C64.3616 65.7305 65.0697 64.2105 67.0137 63.6189C69.172 62.962 70.9336 63.9144 71.4786 65.7053C71.8094 66.7921 71.5851 67.8136 70.9781 68.567C71.83 68.8931 72.5208 69.5692 72.8189 70.5489C73.3593 72.3245 72.2199 74.0761 70.1688 74.7003ZM74.9001 73.0932L71.6392 62.3784L73.4607 61.824L74.8023 66.2324L79.7464 64.7277L78.4048 60.3194L80.2263 59.765L83.4872 70.4798L81.6657 71.0341L80.2728 66.4574L75.3287 67.9621L76.7216 72.5388L74.9001 73.0932ZM93.8214 67.3347L91.9999 67.8891L89.5355 59.7918L87.3007 69.3192L85.0199 70.0133L81.759 59.2985L83.5805 58.7442L86.0449 66.8415L88.2797 57.314L90.5604 56.6199L93.8214 67.3347ZM95.3491 66.8698L92.0881 56.155L93.9097 55.6006L95.7777 61.7387L98.119 54.3196L100.231 53.6767L97.8288 61.1144L100.691 60.2433L103.37 64.4287L101.548 64.9831L99.8859 62.3783L96.3041 63.4683L97.1706 66.3154L95.3491 66.8698ZM112.835 61.548L111.014 62.1024L108.549 54.0051L106.315 63.5325L104.034 64.2266L100.773 53.5119L102.594 52.9575L105.059 61.0548L107.294 51.5274L109.574 50.8333L112.835 61.548Z" fill="white"/>
<rect x="123.639" y="90.0168" width="157" height="34" rx="17" transform="rotate(16.9087 123.639 90.0168)" fill="#F6F6F6"/>
<path d="M138.081 118.446L136.259 117.892L138.721 109.794L131.559 116.464L129.278 115.77L132.536 105.054L134.358 105.608L131.896 113.706L139.057 107.037L141.338 107.73L138.081 118.446ZM155.182 111.939L152.45 120.925L154.41 121.52L153.256 125.317L151.434 124.763L152.062 122.696L144.714 120.463L144.086 122.529L142.264 121.976L143.418 118.179L144.459 118.495C145.317 118.756 145.927 117.905 146.238 117.046L148.814 110.003L155.182 111.939ZM147.092 119.296L150.629 120.371L152.834 113.115L150.018 112.258L147.946 117.917C147.744 118.474 147.452 118.937 147.092 119.296ZM154.573 123.46L157.83 112.744L161.795 113.949C164.046 114.633 164.69 116.585 164.201 118.192C163.708 119.815 162.086 121.078 159.836 120.394L157.693 119.742L156.395 124.013L154.573 123.46ZM158.219 118.013L160.377 118.669C161.372 118.971 162.09 118.37 162.318 117.62C162.542 116.885 162.28 115.986 161.285 115.684L159.126 115.027L158.219 118.013ZM162.228 125.787L162.754 124.057L164.973 124.731L166.189 123.429L165.256 115.001L167.123 115.569L167.749 121.762L172.129 117.09L173.951 117.644L165.458 126.768L162.228 125.787ZM174.634 117.852L180.849 119.741L180.323 121.471L175.93 120.135L173.198 129.121L171.376 128.568L174.634 117.852ZM187.309 133.411L185.488 132.857L187.949 124.759L180.788 131.429L178.507 130.735L181.765 120.02L183.586 120.573L181.125 128.671L188.286 122.002L190.567 122.695L187.309 133.411ZM188.837 133.876L192.095 123.16L198.876 125.221L198.35 126.951L193.391 125.443L192.576 128.122L197.536 129.63L197.01 131.36L192.05 129.852L191.185 132.7L196.145 134.207L195.619 135.937L188.837 133.876ZM202.94 138.163L205.671 129.177L202.855 128.32L203.38 126.59L210.836 128.857L210.31 130.587L207.493 129.73L204.761 138.716L202.94 138.163ZM212.676 141.289C209.798 140.415 207.887 137.459 208.901 134.122C209.906 130.815 213.148 129.393 216.026 130.267C218.889 131.138 220.806 134.128 219.801 137.435C218.786 140.772 215.538 142.16 212.676 141.289ZM210.784 134.694C210.086 136.99 211.322 138.921 213.22 139.498C215.103 140.071 217.22 139.159 217.918 136.863C218.606 134.597 217.365 132.631 215.482 132.059C213.583 131.481 211.473 132.429 210.784 134.694ZM219.17 143.096L222.427 132.381L227.112 133.805C229.01 134.382 229.563 135.971 229.168 137.272C228.768 138.589 227.423 139.602 225.525 139.025L222.662 138.154L222.523 138.614L225.538 139.53C227.345 140.08 227.866 141.609 227.485 142.865C227.098 144.135 225.814 145.116 224.007 144.567L219.17 143.096ZM221.517 141.92L224.548 142.842C225.1 143.009 225.481 142.69 225.602 142.292C225.718 141.91 225.579 141.432 225.028 141.265L221.997 140.344L221.517 141.92ZM223.188 136.425L226.066 137.299C226.709 137.495 227.15 137.144 227.285 136.7C227.415 136.271 227.244 135.734 226.601 135.539L223.723 134.664L223.188 136.425ZM226.804 145.417L233.521 135.753L235.649 136.4L236.112 148.246L234.213 147.669L234.175 144.882L230.194 143.672L228.672 145.985L226.804 145.417ZM231.241 142.1L234.134 142.98L234.058 137.839L231.241 142.1ZM236.795 148.454L240.053 137.738L244.018 138.944C246.268 139.628 246.912 141.58 246.424 143.187C245.93 144.81 244.309 146.073 242.059 145.389L239.915 144.737L238.617 149.008L236.795 148.454ZM240.441 143.007L242.6 143.663C243.595 143.966 244.313 143.365 244.541 142.615C244.764 141.88 244.502 140.981 243.507 140.678L241.349 140.022L240.441 143.007ZM253.007 153.383L256.265 142.667L258.087 143.221L254.829 153.936L253.007 153.383ZM245.062 150.967L248.32 140.252L250.142 140.805L248.704 145.536L250.923 146.21C253.128 146.881 253.788 148.67 253.318 150.216C252.852 151.747 251.308 152.866 249.104 152.196L245.062 150.967ZM247.41 149.791L249.645 150.471C250.594 150.759 251.235 150.302 251.435 149.644C251.64 148.97 251.362 148.233 250.413 147.945L248.178 147.265L247.41 149.791Z" fill="#313240"/>
</svg>
